<?xml version="1.0" encoding="utf-8"?>
<!-- Generator: Adobe Illustrator 23.0.3, SVG Export Plug-In . SVG Version: 6.00 Build 0)  -->
<svg version="1.1" id="Layer_1" xmlns="http://www.w3.org/2000/svg" xmlns:xlink="http://www.w3.org/1999/xlink" x="0px" y="0px"
	 viewBox="0 0 512 512" style="enable-background:new 0 0 512 512;" xml:space="preserve">
<style type="text/css">
	.st0{fill:#FFC311;}
</style>
<title>excel-glyph</title>
<path class="st0" d="M153.6,268.8h51.2v25.6h-51.2V268.8z M230.4,345.6h51.2V320h-51.2L230.4,345.6z M153.6,396.8h51.2v-25.6h-51.2
	V396.8z M153.6,345.6h51.2V320h-51.2V345.6z M230.4,294.4h51.2v-25.6h-51.2L230.4,294.4z M230.4,396.8h51.2v-25.6h-51.2L230.4,396.8
	z M460.8,153.6V448c0,35.3-28.7,64-64,64H115.2c-35.3,0-64-28.7-64-64V64c0-35.3,28.7-64,64-64h192.1L460.8,153.6z M384,243.2H128
	v179.2h256V243.2z M435.2,166.4L294.4,25.6v76.8c0,35.3,28.7,64,64,64H435.2z M307.2,396.8h51.2v-25.6h-51.2V396.8z M307.2,294.4
	h51.2v-25.6h-51.2V294.4z M307.2,345.6h51.2V320h-51.2V345.6z"/>
</svg>
