<?xml version="1.0" encoding="UTF-8" standalone="no"?> <svg xmlns="http://www.w3.org/2000/svg" viewBox="0 0 32 32"><defs><style>.cls-1{fill:#69c2f9;}.cls-2{fill:#1a1a1a;}</style></defs><title>Analytics, chart, graph_1</title><g id="_09" data-name="09"><path class="cls-1" d="M3,22v8H29V12.414A1.414,1.414,0,0,0,27.586,11h0a1.415,1.415,0,0,0-1,.414L17,21l-5.293-5.293A2.414,2.414,0,0,0,10,15h0a2.414,2.414,0,0,0-1.707.707L3,21Z"/><path class="cls-2" d="M29,31H3a1,1,0,0,1-1-1V21a1,1,0,0,1,.293-.707L7.586,15a3.5,3.5,0,0,1,4.828,0L17,19.586l8.879-8.879A2.414,2.414,0,0,1,30,12.414V30A1,1,0,0,1,29,31ZM4,29H28V12.414a.43.43,0,0,0-.706-.293l-9.587,9.586a1,1,0,0,1-1.414,0L11,16.414a1.447,1.447,0,0,0-2,0l-5,5Z"/><path class="cls-2" d="M3,15a1,1,0,0,1-.707-1.707L8.94,6.646a1.537,1.537,0,0,1,2.121,0L17,12.585,27.293,2.293a1,1,0,1,1,1.414,1.414L18.063,14.35a1.541,1.541,0,0,1-2.128,0L10,8.415,3.707,14.707A1,1,0,0,1,3,15Zm13.649-2.064,0,0Zm.7,0h0Z"/></g></svg>