<svg width="24.000000000000004" height="24.000000000000004" xmlns="http://www.w3.org/2000/svg">
 <g>
  <title>background</title>
  <rect x="-1" y="-1" width="2.921705" height="2.921705" id="canvas_background" fill="none"/>
 </g>

 <g>
  <title>Layer 1</title>
  <path fill="#56aaff" d="m13.5,2c-5.629,0 -10.212,4.436 -10.475,10l-3.025,0l4.537,5.917l4.463,-5.917l-2.975,0c0.26,-3.902 3.508,-7 7.475,-7c4.136,0 7.5,3.364 7.5,7.5s-3.364,7.5 -7.5,7.5c-2.381,0 -4.502,-1.118999 -5.876,-2.854l-1.847,2.448999c1.919,2.088001 4.664,3.405001 7.723,3.405001c5.798,0 10.5,-4.702 10.5,-10.5s-4.702,-10.5 -10.5,-10.5z" id="svg_1"/>
 </g>
</svg>